<svg xmlns="http://www.w3.org/2000/svg" viewBox="0 0 768 776" preserveAspectRatio="xMidYMid meet" version="1.0"><defs><clipPath id="a"><path d="M 249.257812 256.324219 L 527.800781 256.324219 L 527.800781 534.144531 L 249.257812 534.144531 Z" clip-rule="nonzero"/></clipPath><clipPath id="b"><path d="M 223.546875 418 L 304 418 L 304 500 L 223.546875 500 Z" clip-rule="nonzero"/></clipPath><clipPath id="c"><path d="M 422.097656 233.472656 L 544.464844 233.472656 L 544.464844 355.601562 L 422.097656 355.601562 Z" clip-rule="nonzero"/></clipPath></defs><g clip-path="url(#a)"><path fill="#000000" d="M 388.347656 256.628906 C 384.738281 388.992188 381.804688 391.921875 249.441406 395.535156 C 381.804688 399.152344 384.738281 402.085938 388.347656 534.449219 C 391.964844 402.085938 394.898438 399.152344 527.261719 395.535156 C 394.898438 391.921875 391.964844 388.992188 388.347656 256.628906" fill-opacity="1" fill-rule="nonzero"/></g><g clip-path="url(#b)"><path fill="#000000" d="M 263.609375 418.992188 C 262.566406 457.164062 261.722656 458.011719 223.546875 459.050781 C 261.722656 460.09375 262.566406 460.941406 263.609375 499.113281 C 264.652344 460.941406 265.496094 460.09375 303.671875 459.050781 C 265.496094 458.011719 264.652344 457.164062 263.609375 418.992188" fill-opacity="1" fill-rule="nonzero"/></g><g clip-path="url(#c)"><path fill="#000000" d="M 483.605469 355.195312 C 485.191406 297.203125 486.472656 295.917969 544.464844 294.335938 C 486.472656 292.75 485.191406 291.46875 483.605469 233.472656 C 482.019531 291.46875 480.738281 292.75 422.742188 294.335938 C 480.738281 295.917969 482.019531 297.203125 483.605469 355.195312" fill-opacity="1" fill-rule="nonzero"/></g></svg>