<svg xmlns="http://www.w3.org/2000/svg" xmlns:xlink="http://www.w3.org/1999/xlink" viewBox="80 295 610 255" preserveAspectRatio="xMidYMid meet" version="1.0"><defs><g/><clipPath id="0a218811bd"><path d="M 335.886719 439 L 435.351562 439 L 435.351562 537.988281 L 335.886719 537.988281 Z M 335.886719 439 " clip-rule="nonzero"/></clipPath><clipPath id="2b0e816999"><path d="M 326.707031 497 L 356 497 L 356 526 L 326.707031 526 Z M 326.707031 497 " clip-rule="nonzero"/></clipPath><clipPath id="ef5a8061b7"><path d="M 397.605469 430.765625 L 441.300781 430.765625 L 441.300781 474.375 L 397.605469 474.375 Z M 397.605469 430.765625 " clip-rule="nonzero"/></clipPath><clipPath id="2f7b5290a4"><rect x="0" width="584" y="0" height="169"/></clipPath></defs><g clip-path="url(#0a218811bd)"><path fill="#000000" d="M 385.554688 439.03125 C 384.265625 486.296875 383.21875 487.34375 335.953125 488.632812 C 383.21875 489.925781 384.265625 490.972656 385.554688 538.238281 C 386.84375 490.972656 387.894531 489.925781 435.15625 488.632812 C 387.894531 487.34375 386.84375 486.296875 385.554688 439.03125 " fill-opacity="1" fill-rule="nonzero"/></g><g clip-path="url(#2b0e816999)"><path fill="#000000" d="M 341.011719 497.007812 C 340.640625 510.640625 340.339844 510.941406 326.707031 511.3125 C 340.339844 511.6875 340.640625 511.988281 341.011719 525.621094 C 341.382812 511.988281 341.6875 511.6875 355.316406 511.3125 C 341.6875 510.941406 341.382812 510.640625 341.011719 497.007812 " fill-opacity="1" fill-rule="nonzero"/></g><g clip-path="url(#ef5a8061b7)"><path fill="#000000" d="M 419.570312 474.230469 C 420.132812 453.519531 420.59375 453.0625 441.300781 452.496094 C 420.59375 451.929688 420.132812 451.472656 419.570312 430.765625 C 419.003906 451.472656 418.542969 451.929688 397.835938 452.496094 C 418.542969 453.0625 419.003906 453.519531 419.570312 474.230469 " fill-opacity="1" fill-rule="nonzero"/></g><g transform="matrix(1, 0, 0, 1, 92, 299)"><g clip-path="url(#2f7b5290a4)"><g fill="#000000" fill-opacity="1"><g transform="translate(0.568044, 126.236178)"><g><path d="M 18.765625 -78.921875 L 18.765625 0 L 5.859375 0 L 5.859375 -118.3125 L 73.5625 -118.3125 L 73.5625 -104.90625 C 69.65625 -108.707031 65.882812 -111.472656 62.25 -113.203125 C 58.625 -114.929688 54.460938 -116.019531 49.765625 -116.46875 C 45.078125 -116.914062 39.269531 -117.140625 32.34375 -117.140625 L 18.765625 -117.140625 L 18.765625 -89.984375 C 18.765625 -82.390625 20.078125 -76.582031 22.703125 -72.5625 C 25.328125 -68.539062 29.238281 -65.832031 34.4375 -64.4375 C 39.632812 -63.039062 46.085938 -62.34375 53.796875 -62.34375 L 53.796875 -49.09375 C 51.222656 -51.894531 48.203125 -54.101562 44.734375 -55.71875 C 41.273438 -57.34375 37.785156 -59.019531 34.265625 -60.75 C 30.742188 -62.476562 27.585938 -64.710938 24.796875 -67.453125 C 22.003906 -70.191406 19.992188 -74.015625 18.765625 -78.921875 Z M 18.765625 -78.921875 "/></g></g></g><g fill="#000000" fill-opacity="1"><g transform="translate(80.002428, 126.236178)"><g><path d="M 76.75 -24.796875 L 72.734375 0 L 5.859375 0 L 5.859375 -118.3125 L 19.265625 -118.3125 L 19.265625 -1.34375 L 47.59375 -1.34375 C 54.851562 -1.34375 60.742188 -3.128906 65.265625 -6.703125 C 69.796875 -10.273438 73.625 -16.304688 76.75 -24.796875 Z M 76.75 -24.796875 "/></g></g></g><g fill="#000000" fill-opacity="1"><g transform="translate(162.62087, 126.236178)"><g><path d="M 87.3125 0 L 68.375 -45.40625 C 61.21875 -44.738281 55.320312 -43.285156 50.6875 -41.046875 C 46.050781 -38.816406 42.304688 -36.109375 39.453125 -32.921875 C 36.609375 -29.742188 34.320312 -26.421875 32.59375 -22.953125 C 30.863281 -19.492188 29.328125 -16.253906 27.984375 -13.234375 C 26.421875 -9.097656 24.71875 -5.660156 22.875 -2.921875 C 21.03125 -0.191406 18.207031 1.113281 14.40625 1 C 13.957031 0.894531 13.535156 0.785156 13.140625 0.671875 C 12.753906 0.554688 12.285156 0.273438 11.734375 -0.171875 C 7.148438 -2.179688 5.304688 -7.039062 6.203125 -14.75 C 6.648438 -18.4375 7.457031 -22.597656 8.625 -27.234375 C 9.800781 -31.867188 11.394531 -36.867188 13.40625 -42.234375 C 16.425781 -50.273438 19.972656 -58.789062 24.046875 -67.78125 C 28.128906 -76.78125 32.429688 -85.660156 36.953125 -94.421875 C 41.472656 -103.191406 45.859375 -111.15625 50.109375 -118.3125 L 51.28125 -118.3125 L 101.390625 0 Z M 67.875 -46.59375 L 43.234375 -103.90625 C 38.097656 -94.070312 32.929688 -83.707031 27.734375 -72.8125 C 22.535156 -61.914062 18.148438 -51.609375 14.578125 -41.890625 C 12.566406 -36.523438 10.972656 -31.550781 9.796875 -26.96875 C 8.628906 -22.394531 7.820312 -18.320312 7.375 -14.75 C 7.257812 -11.28125 7.535156 -8.34375 8.203125 -5.9375 C 8.878906 -3.539062 10.222656 -2.007812 12.234375 -1.34375 C 12.796875 -1.226562 13.210938 -1.113281 13.484375 -1 C 13.765625 -0.894531 14.128906 -0.726562 14.578125 -0.5 C 17.929688 -0.28125 20.445312 -1.453125 22.125 -4.015625 C 23.800781 -6.585938 25.304688 -9.773438 26.640625 -13.578125 C 27.984375 -16.703125 29.546875 -20.023438 31.328125 -23.546875 C 33.117188 -27.066406 35.492188 -30.445312 38.453125 -33.6875 C 41.421875 -36.925781 45.25 -39.71875 49.9375 -42.0625 C 54.632812 -44.40625 60.613281 -45.914062 67.875 -46.59375 Z M 67.875 -46.59375 "/></g></g></g><g fill="#000000" fill-opacity="1"><g transform="translate(261.49487, 126.236178)"><g><path d="M 19.109375 -118.484375 L 19.109375 -42.90625 C 19.109375 -35.976562 20.421875 -29.582031 23.046875 -23.71875 C 25.671875 -17.851562 29.269531 -12.992188 33.84375 -9.140625 C 38.425781 -5.285156 43.707031 -2.828125 49.6875 -1.765625 C 55.664062 -0.703125 62.003906 -1.398438 68.703125 -3.859375 C 76.742188 -6.765625 83.023438 -11.59375 87.546875 -18.34375 C 92.078125 -25.101562 94.34375 -33.289062 94.34375 -42.90625 C 94.34375 -49.15625 94.257812 -55.910156 94.09375 -63.171875 C 93.925781 -70.429688 93.476562 -77.609375 92.75 -84.703125 C 92.03125 -91.804688 90.882812 -98.316406 89.3125 -104.234375 C 87.75 -110.148438 85.570312 -114.898438 82.78125 -118.484375 L 95.859375 -118.484375 L 95.859375 -42.90625 C 95.859375 -33.625 93.59375 -25.378906 89.0625 -18.171875 C 84.539062 -10.972656 77.867188 -5.753906 69.046875 -2.515625 C 61.554688 0.171875 54.066406 1.148438 46.578125 0.421875 C 39.097656 -0.304688 32.285156 -2.515625 26.140625 -6.203125 C 19.992188 -9.890625 15.078125 -14.859375 11.390625 -21.109375 C 7.703125 -27.367188 5.859375 -34.632812 5.859375 -42.90625 L 5.859375 -118.484375 Z M 19.109375 -118.484375 "/></g></g></g><g fill="#000000" fill-opacity="1"><g transform="translate(363.217802, 126.236178)"><g><path d="M 53.296875 -65.359375 C 59.097656 -64.015625 63.785156 -61.441406 67.359375 -57.640625 C 70.941406 -53.847656 73.929688 -49.378906 76.328125 -44.234375 C 78.734375 -39.097656 81.050781 -33.90625 83.28125 -28.65625 C 85.40625 -23.851562 87.582031 -19.351562 89.8125 -15.15625 C 92.050781 -10.96875 94.566406 -7.617188 97.359375 -5.109375 C 100.148438 -2.597656 103.390625 -1.34375 107.078125 -1.34375 L 107.078125 0 C 98.367188 0 91.472656 -1.171875 86.390625 -3.515625 C 81.304688 -5.859375 77.476562 -8.957031 74.90625 -12.8125 C 72.332031 -16.664062 70.488281 -20.882812 69.375 -25.46875 C 68.257812 -30.050781 67.394531 -34.628906 66.78125 -39.203125 C 66.164062 -43.785156 65.269531 -48.003906 64.09375 -51.859375 C 62.925781 -55.710938 60.972656 -58.8125 58.234375 -61.15625 C 55.492188 -63.507812 51.441406 -64.6875 46.078125 -64.6875 C 37.585938 -64.6875 30.773438 -68.707031 25.640625 -76.75 C 22.734375 -81.445312 20.554688 -87.203125 19.109375 -94.015625 L 19.109375 0 L 5.859375 0 L 5.859375 -118.484375 L 35.359375 -118.484375 C 43.628906 -118.484375 51.140625 -117.585938 57.890625 -115.796875 C 64.648438 -114.003906 70.066406 -111.179688 74.140625 -107.328125 C 78.222656 -103.472656 80.265625 -98.363281 80.265625 -92 C 80.265625 -86.53125 79.035156 -81.921875 76.578125 -78.171875 C 74.117188 -74.429688 70.847656 -71.523438 66.765625 -69.453125 C 62.691406 -67.390625 58.203125 -66.023438 53.296875 -65.359375 Z M 67.03125 -92 C 67.03125 -98.363281 65.519531 -103.390625 62.5 -107.078125 C 59.488281 -110.765625 55.582031 -113.363281 50.78125 -114.875 C 45.976562 -116.382812 40.835938 -117.140625 35.359375 -117.140625 L 19.109375 -117.140625 L 19.109375 -106.75 C 19.109375 -100.601562 19.804688 -95.128906 21.203125 -90.328125 C 22.597656 -85.523438 24.46875 -81.28125 26.8125 -77.59375 C 29.15625 -74.125 32.003906 -71.300781 35.359375 -69.125 C 38.710938 -66.945312 42.285156 -65.859375 46.078125 -65.859375 L 47.25 -65.859375 C 52.613281 -66.191406 57.25 -68.425781 61.15625 -72.5625 C 65.070312 -76.695312 67.03125 -83.175781 67.03125 -92 Z M 67.03125 -92 "/></g></g></g><g fill="#000000" fill-opacity="1"><g transform="translate(476.168762, 126.236178)"><g><path d="M 87.3125 0 L 68.375 -45.40625 C 61.21875 -44.738281 55.320312 -43.285156 50.6875 -41.046875 C 46.050781 -38.816406 42.304688 -36.109375 39.453125 -32.921875 C 36.609375 -29.742188 34.320312 -26.421875 32.59375 -22.953125 C 30.863281 -19.492188 29.328125 -16.253906 27.984375 -13.234375 C 26.421875 -9.097656 24.71875 -5.660156 22.875 -2.921875 C 21.03125 -0.191406 18.207031 1.113281 14.40625 1 C 13.957031 0.894531 13.535156 0.785156 13.140625 0.671875 C 12.753906 0.554688 12.285156 0.273438 11.734375 -0.171875 C 7.148438 -2.179688 5.304688 -7.039062 6.203125 -14.75 C 6.648438 -18.4375 7.457031 -22.597656 8.625 -27.234375 C 9.800781 -31.867188 11.394531 -36.867188 13.40625 -42.234375 C 16.425781 -50.273438 19.972656 -58.789062 24.046875 -67.78125 C 28.128906 -76.78125 32.429688 -85.660156 36.953125 -94.421875 C 41.472656 -103.191406 45.859375 -111.15625 50.109375 -118.3125 L 51.28125 -118.3125 L 101.390625 0 Z M 67.875 -46.59375 L 43.234375 -103.90625 C 38.097656 -94.070312 32.929688 -83.707031 27.734375 -72.8125 C 22.535156 -61.914062 18.148438 -51.609375 14.578125 -41.890625 C 12.566406 -36.523438 10.972656 -31.550781 9.796875 -26.96875 C 8.628906 -22.394531 7.820312 -18.320312 7.375 -14.75 C 7.257812 -11.28125 7.535156 -8.34375 8.203125 -5.9375 C 8.878906 -3.539062 10.222656 -2.007812 12.234375 -1.34375 C 12.796875 -1.226562 13.210938 -1.113281 13.484375 -1 C 13.765625 -0.894531 14.128906 -0.726562 14.578125 -0.5 C 17.929688 -0.28125 20.445312 -1.453125 22.125 -4.015625 C 23.800781 -6.585938 25.304688 -9.773438 26.640625 -13.578125 C 27.984375 -16.703125 29.546875 -20.023438 31.328125 -23.546875 C 33.117188 -27.066406 35.492188 -30.445312 38.453125 -33.6875 C 41.421875 -36.925781 45.25 -39.71875 49.9375 -42.0625 C 54.632812 -44.40625 60.613281 -45.914062 67.875 -46.59375 Z M 67.875 -46.59375 "/></g></g></g></g></g></svg>